Coordinates
version=1
nRows=8
nColumns=63
inDegrees=yes

Units are S.I. units (second, meters, Newtons, ...)
If the header above contains a line with 'inDegrees', this indicates whether rotational values are in degrees (yes) or radians (no).

endheader
time	pelvis_tilt	pelvis_list	pelvis_rotation	pelvis_tx	pelvis_ty	pelvis_tz	hip_flexion_r	hip_adduction_r	hip_rotation_r	knee_angle_r	knee_angle_r_beta	ankle_angle_r	subtalar_angle_r	mtp_angle_r	hip_flexion_l	hip_adduction_l	hip_rotation_l	knee_angle_l	knee_angle_l_beta	ankle_angle_l	subtalar_angle_l	mtp_angle_l	L5_S1_Flex_Ext	L5_S1_Lat_Bending	L5_S1_axial_rotation	L4_L5_Flex_Ext	L4_L5_Lat_Bending	L4_L5_axial_rotation	L3_L4_Flex_Ext	L3_L4_Lat_Bending	L3_L4_axial_rotation	L2_L3_Flex_Ext	L2_L3_Lat_Bending	L2_L3_axial_rotation	L1_L2_Flex_Ext	L1_L2_Lat_Bending	L1_L2_axial_rotation	L1_T12_Flex_Ext	L1_T12_Lat_Bending	L1_T12_axial_rotation	Abs_r3	Abs_r2	Abs_r1	Abs_t1	Abs_t2	neck_flexion	neck_bending	neck_rotation	arm_flex_r	arm_add_r	arm_rot_r	elbow_flex_r	pro_sup_r	wrist_flex_r	wrist_dev_r	arm_flex_l	arm_add_l	arm_rot_l	elbow_flex_l	pro_sup_l	wrist_flex_l	wrist_dev_l
      1.16949153	     -5.20603462	     -4.71210334	     76.28954084	      0.24350553	      0.34267036	      0.95457508	      1.82080648	     -0.45958793	      9.73020906	      5.07670724	      0.08860526	     21.92999072	    -13.91013375	      0.00000000	      5.01090483	      0.92298078	     -4.28200057	     10.64233504	      0.18574379	     31.64450002	      1.34494918	      0.00000000	      0.06306655	     -0.07957539	     -0.08426686	      0.11712089	     -0.10583527	     -0.08953353	      0.10361204	     -0.19347961	     -0.08953353	      0.07207876	     -0.19347961	     -0.07373350	      0.05856360	     -0.16227014	     -0.06846682	      0.03603623	     -0.12326228	     -0.06320014	      0.45047808	     -0.90017275	     -0.46866697	      0.00000000	      0.00000000	     14.94025390	      1.78518377	      2.87938506	      1.79143731	    -17.10082231	     10.55239976	     94.81901130	     88.76610260	     17.09403022	     14.20482041	     -4.27166319	    -27.82231003	     15.72463918	    101.06541018	     67.60398383	     -1.64713768	     26.56737031
      1.18644068	     -5.20634176	     -4.62174749	     76.50842430	      0.24361426	      0.34288735	      0.95450185	      1.73813281	     -0.46332961	      9.56829051	      5.17307170	      0.09028713	     21.96392454	    -14.02836937	      0.00000000	      4.94425781	      0.93941749	     -4.28548966	     10.53382323	      0.18384990	     31.73134152	      1.43473960	      0.00000000	      0.04152703	     -0.08577275	     -0.06117318	      0.07711985	     -0.11407776	     -0.06499650	      0.06822476	     -0.20854787	     -0.06499650	      0.04746124	     -0.20854787	     -0.05352653	      0.03856200	     -0.17490779	     -0.04970321	      0.02372854	     -0.13286199	     -0.04587988	      0.29662342	     -0.97027851	     -0.34022686	      0.00000000	      0.00000000	     14.77367909	      1.80422474	      2.60156348	      1.27575113	    -17.52107797	     10.49214641	     97.69135187	     88.42353819	     17.95941246	     13.94934707	     -4.55721364	    -28.15386421	     14.58050168	    103.35872212	     67.40674506	     -1.59185326	     26.23114070
      1.20338983	     -5.35448949	     -4.86779378	     76.97007698	      0.24339326	      0.34269609	      0.95494051	      2.10127634	     -0.54045326	      9.24611712	      5.34513846	      0.09329027	     22.08187607	    -14.10790477	      0.00000000	      5.31605291	      1.00570442	     -4.29210311	     10.39282469	      0.18138901	     31.78725111	      2.04324089	      0.00000000	      0.05485999	     -0.11046421	     -0.18170260	      0.10188048	     -0.14691739	     -0.19305902	      0.09012947	     -0.26858267	     -0.19305902	      0.06269948	     -0.26858267	     -0.15898978	      0.05094298	     -0.22525861	     -0.14763337	      0.03134700	     -0.17110905	     -0.13627695	      0.39185939	     -1.24959318	     -1.01057537	      0.00000000	      0.00000000	     15.27944701	      1.31517994	      1.24832961	      1.05161740	    -16.84803419	     10.32264889	    100.16765835	     87.87886928	     19.10758665	     14.84294163	     -5.54549889	    -28.01307231	     12.75788604	    105.79113306	     66.54333327	     -1.40939271	     25.81810257
      1.22033898	     -5.35433565	     -5.00452579	     77.22287079	      0.24314419	      0.34274519	      0.95556216	      2.37638528	     -0.49280079	      9.08886935	      5.55902958	      0.09702337	     22.20828670	    -14.17994403	      0.00000000	      5.54818343	      0.97563701	     -4.22115950	     10.26193446	      0.17910454	     31.89768904	      2.23342332	      0.00000000	      0.04133892	     -0.10946227	     -0.20024857	      0.07677051	     -0.14558482	     -0.21276411	      0.06791571	     -0.26614656	     -0.21276411	      0.04724625	     -0.26614656	     -0.17521750	      0.03838732	     -0.22321546	     -0.16270196	      0.02362106	     -0.16955706	     -0.15018643	      0.29527977	     -1.23825910	     -1.11372248	      0.00000000	      0.00000000	     15.65688807	      1.23440010	      0.86545705	      0.82475238	    -16.02715183	     10.11378193	    102.22187835	     87.42401598	     17.93051840	     14.02128118	     -5.44073855	    -27.81794287	     12.26627314	    107.40035638	     65.94923848	     -1.14709533	     24.91334053
      1.23728814	     -5.42035671	     -5.20969658	     77.74671387	      0.24252533	      0.34291462	      0.95669601	      2.80366004	     -0.51251413	      8.55450216	      5.86835903	      0.10242219	     22.30018673	    -14.11376696	      0.00000000	      6.08630674	      0.96960245	     -4.16977633	     10.48599497	      0.18301514	     31.91358370	      2.77139420	      0.00000000	      0.04121345	     -0.12384753	     -0.23960638	      0.07653749	     -0.16471722	     -0.25458178	      0.06770957	     -0.30112289	     -0.25458178	      0.04710285	     -0.30112289	     -0.20965558	      0.03827081	     -0.25254989	     -0.19468019	      0.02354936	     -0.19183983	     -0.17970479	      0.29438352	     -1.40098804	     -1.33261882	      0.00000000	      0.00000000	     15.78258733	      0.80679684	     -0.48166942	      1.22980639	    -15.97573180	     11.99416444	    103.64555984	     87.39154042	      8.80368380	     10.20020007	     -4.45057412	    -27.93086354	     12.96565681	    107.93822227	     63.57165869	     -0.46846567	     21.57198528
      1.25423729	     -5.39348147	     -5.32965328	     78.03565108	      0.24197316	      0.34312670	      0.95745145	      3.14226364	     -0.46249530	      8.36399606	      6.22097354	      0.10857647	     22.43909199	    -14.13346832	      0.00000000	      6.41958182	      0.91313346	     -4.06951100	     10.63504038	      0.18561647	     31.94258942	      3.04429957	      0.00000000	      0.03293116	     -0.12058815	     -0.26428944	      0.06115645	     -0.16038223	     -0.28080753	      0.05410260	     -0.29319802	     -0.28080753	      0.03763702	     -0.29319802	     -0.23125326	      0.03057987	     -0.24590335	     -0.21473517	      0.01881686	     -0.18679104	     -0.19821708	      0.23522395	     -1.36411723	     -1.46989857	      0.00000000	      0.00000000	     15.98258532	      0.90146547	     -0.65173604	      2.75279597	    -15.68262972	     13.97346119	    103.87286376	     87.24312292	      2.16392754	      6.64133731	     -3.60673127	    -27.34973872	     13.18790990	    108.32094564	     62.50202657	     -0.59241140	     18.56041736
      1.27118644	     -5.29804219	     -5.32164124	     78.41593572	      0.24136588	      0.34347730	      0.95773965	      3.23681028	     -0.37867037	      8.12452697	      6.43695722	      0.11234610	     22.50135424	    -14.23255209	      0.00000000	      6.60805814	      0.82646346	     -3.85388743	     10.88932883	      0.19005464	     31.96748560	      3.24817537	      0.00000000	      0.01962817	     -0.11033084	     -0.32382410	      0.03645147	     -0.14674002	     -0.34406310	      0.03224712	     -0.26825840	     -0.34406310	      0.02243304	     -0.26825840	     -0.28334609	      0.01822672	     -0.22498665	     -0.26310708	      0.01121554	     -0.17090247	     -0.24286807	      0.14020206	     -1.24808451	     -1.80101248	      0.00000000	      0.00000000	     15.75664847	      1.16931591	     -0.25549789	      5.25581823	    -15.74573441	     16.74903978	    103.37797323	     86.32184708	     -3.38376304	      3.89468358	     -2.99881489	    -26.29245130	     12.91939146	    108.47589081	     62.42496818	     -1.57801388	     15.18746883
      1.28813559	     -5.20144454	     -5.34567362	     78.87664884	      0.24044602	      0.34362876	      0.95762999	      3.33298013	     -0.32022775	      7.85217804	      6.64488631	      0.11597514	     22.61008874	    -14.29552400	      0.00000000	      6.85506792	      0.75890795	     -3.57553127	     11.27595222	      0.19680249	     32.02110918	      3.43539746	      0.00000000	      0.01396047	     -0.09272238	     -0.40675519	      0.02592599	     -0.12332077	     -0.43217739	      0.02293566	     -0.22544520	     -0.43217739	      0.01595542	     -0.22544520	     -0.35591079	      0.01296369	     -0.18907948	     -0.33048859	      0.00797701	     -0.14362697	     -0.30506639	      0.09971824	     -1.04889413	     -2.26225034	      0.00000000	      0.00000000	     15.64988650	      1.60617902	      0.76947454	      8.29511642	    -16.40916772	     20.23909939	    102.83463833	     84.23605288	     -7.41554925	      1.77991033	     -2.82697107	    -24.87769923	     12.03028234	    108.74888627	     63.81890056	     -3.44469306	     11.73053044
